<?xml version="1.0" encoding="UTF-8"?>
<svg width="1440px" height="1024px" viewBox="0 0 1440 1024" version="1.1" xmlns="http://www.w3.org/2000/svg" xmlns:xlink="http://www.w3.org/1999/xlink">
    <!-- Generator: Sketch 51.3 (57544) - http://www.bohemiancoding.com/sketch -->
    <title>Box Overlay</title>
    <desc>Created with Sketch.</desc>
    <defs></defs>
    <g id="Page-1" stroke="none" stroke-width="1" fill="none" fill-rule="evenodd">
        <g id="Desktop-HD" fill="#FFFFFF">
            <g id="Box-Overlay">
                <rect id="Rectangle-2" x="0" y="0" width="180" height="205"></rect>
                <rect id="Rectangle-2-Copy" x="0" y="205" width="180" height="205"></rect>
                <rect id="Rectangle-2-Copy-2" x="0" y="410" width="180" height="205"></rect>
                <rect id="Rectangle-2-Copy-3" x="0" y="615" width="180" height="205"></rect>
                <rect id="Rectangle-2-Copy-4" x="0" y="820" width="180" height="205"></rect>
                <rect id="Rectangle-2-Copy-9" x="180" y="0" width="180" height="205"></rect>
                <rect id="Rectangle-2-Copy-8" x="180" y="205" width="180" height="205"></rect>
                <rect id="Rectangle-2-Copy-7" x="180" y="410" width="180" height="205"></rect>
                <rect id="Rectangle-2-Copy-6" x="180" y="615" width="180" height="205"></rect>
                <rect id="Rectangle-2-Copy-5" x="180" y="820" width="180" height="205"></rect>
                <rect id="Rectangle-2-Copy-14" x="360" y="0" width="180" height="205"></rect>
                <rect id="Rectangle-2-Copy-13" x="360" y="205" width="180" height="205"></rect>
                <rect id="Rectangle-2-Copy-12" x="360" y="410" width="180" height="205"></rect>
                <rect id="Rectangle-2-Copy-11" x="360" y="615" width="180" height="205"></rect>
                <rect id="Rectangle-2-Copy-10" x="360" y="820" width="180" height="205"></rect>
                <rect id="Rectangle-2-Copy-19" x="540" y="0" width="180" height="205"></rect>
                <rect id="Rectangle-2-Copy-18" x="540" y="205" width="180" height="205"></rect>
                <rect id="Rectangle-2-Copy-17" x="540" y="410" width="180" height="205"></rect>
                <rect id="Rectangle-2-Copy-16" x="540" y="615" width="180" height="205"></rect>
                <rect id="Rectangle-2-Copy-15" x="540" y="820" width="180" height="205"></rect>
                <rect id="Rectangle-2-Copy-24" x="720" y="0" width="180" height="205"></rect>
                <rect id="Rectangle-2-Copy-23" x="720" y="205" width="180" height="205"></rect>
                <rect id="Rectangle-2-Copy-22" x="720" y="410" width="180" height="205"></rect>
                <rect id="Rectangle-2-Copy-21" x="720" y="615" width="180" height="205"></rect>
                <rect id="Rectangle-2-Copy-20" x="720" y="820" width="180" height="205"></rect>
                <rect id="Rectangle-2-Copy-29" x="900" y="0" width="180" height="205"></rect>
                <rect id="Rectangle-2-Copy-28" x="900" y="205" width="180" height="205"></rect>
                <rect id="Rectangle-2-Copy-27" x="900" y="410" width="180" height="205"></rect>
                <rect id="Rectangle-2-Copy-26" x="900" y="615" width="180" height="205"></rect>
                <rect id="Rectangle-2-Copy-25" x="900" y="820" width="180" height="205"></rect>
                <rect id="Rectangle-2-Copy-34" x="1080" y="0" width="180" height="205"></rect>
                <rect id="Rectangle-2-Copy-33" x="1080" y="205" width="180" height="205"></rect>
                <rect id="Rectangle-2-Copy-32" x="1080" y="410" width="180" height="205"></rect>
                <rect id="Rectangle-2-Copy-31" x="1080" y="615" width="180" height="205"></rect>
                <rect id="Rectangle-2-Copy-30" x="1080" y="820" width="180" height="205"></rect>
                <rect id="Rectangle-2-Copy-39" x="1260" y="0" width="180" height="205"></rect>
                <rect id="Rectangle-2-Copy-38" x="1260" y="205" width="180" height="205"></rect>
                <rect id="Rectangle-2-Copy-37" x="1260" y="410" width="180" height="205"></rect>
                <rect id="Rectangle-2-Copy-36" x="1260" y="615" width="180" height="205"></rect>
                <rect id="Rectangle-2-Copy-35" x="1260" y="820" width="180" height="205"></rect>
            </g>
        </g>
    </g>
</svg>