<?xml version="1.0" encoding="UTF-8"?>
<svg width="234px" height="28px" viewBox="0 0 234 28" version="1.1" xmlns="http://www.w3.org/2000/svg" xmlns:xlink="http://www.w3.org/1999/xlink">
    <!-- Generator: Sketch 51.3 (57544) - http://www.bohemiancoding.com/sketch -->
    <title>PIXEL SKETCH</title>
    <desc>Created with Sketch.</desc>
    <defs></defs>
    <g id="Page-1" stroke="none" stroke-width="1" fill="none" fill-rule="evenodd">
        <g id="SPA-Full" transform="translate(-604.000000, -498.000000)" stroke="#000000">
            <path d="M605,499.361111 L613.213124,499.361111 C614.568157,499.361111 615.798731,499.528291 616.904881,499.862654 C618.011031,500.197018 618.965071,500.691869 619.76703,501.347222 C620.568989,502.002575 621.191189,502.805036 621.633649,503.75463 C622.076109,504.704223 622.297336,505.794233 622.297336,507.024691 C622.297336,508.362147 622.062283,509.519028 621.592169,510.49537 C621.122055,511.471713 620.458375,512.280861 619.601109,512.92284 C618.743842,513.564818 617.734495,514.046295 616.573038,514.367284 C615.41158,514.688273 614.1257,514.848765 612.715358,514.848765 L608.816199,514.848765 L608.816199,524.638889 L605,524.638889 L605,499.361111 Z M608.816199,511.839506 L611.180583,511.839506 C612.203772,511.839506 613.157812,511.772634 614.042732,511.638889 C614.927652,511.505143 615.681206,511.264405 616.303415,510.916667 C616.925624,510.568928 617.416471,510.080764 617.77597,509.45216 C618.135469,508.823557 618.315215,508.027783 618.315215,507.064815 C618.315215,506.182094 618.142382,505.439818 617.79671,504.837963 C617.451038,504.236108 617.001672,503.747944 616.448596,503.373457 C615.895521,502.998969 615.259495,502.731482 614.540497,502.570988 C613.821499,502.410493 613.088686,502.330247 612.342035,502.330247 L608.816199,502.330247 L608.816199,511.839506 Z M630.51046,499.361111 L630.51046,524.638889 L626.694261,524.638889 L626.694261,499.361111 L630.51046,499.361111 Z M638.765063,499.361111 L645.028607,509.231481 L651.582514,499.361111 L655.772036,499.361111 L647.185589,511.799383 L656.186841,524.638889 L651.789916,524.638889 L645.028607,514.367284 L638.225818,524.638889 L634.036295,524.638889 L642.747184,511.799383 L634.409619,499.361111 L638.765063,499.361111 Z M659.712677,499.361111 L675.475237,499.361111 L675.475237,502.410494 L663.528875,502.410494 L663.528875,509.993827 L674.396746,509.993827 L674.396746,513.003086 L663.528875,513.003086 L663.528875,521.589506 L675.599678,521.589506 L675.599678,524.638889 L659.712677,524.638889 L659.712677,499.361111 Z M680.494368,499.361111 L684.310567,499.361111 L684.310567,521.509259 L695.4688,521.509259 L695.4688,524.638889 L680.494368,524.638889 L680.494368,499.361111 Z M715.960129,499 C717.232201,499 718.462775,499.100308 719.651886,499.300926 C720.840998,499.501544 722.016265,499.869339 723.177722,500.404321 L722.265153,503.453704 C721.076041,502.918722 720.004475,502.537553 719.05042,502.310185 C718.096366,502.082818 717.121586,501.969136 716.12605,501.969136 C714.549787,501.969136 713.305386,502.303495 712.392812,502.972222 C711.480239,503.64095 711.023959,504.577154 711.023959,505.780864 C711.023959,506.79733 711.362712,507.613166 712.040229,508.228395 C712.717746,508.843624 713.830793,509.378599 715.379403,509.833333 L717.992669,510.635802 C720.370892,511.358028 722.050832,512.341043 723.032541,513.584877 C724.014249,514.82871 724.505096,516.22633 724.505096,517.777778 C724.505096,518.874491 724.276956,519.87088 723.820669,520.766975 C723.364382,521.66307 722.728355,522.425408 721.912569,523.054012 C721.096784,523.682616 720.13583,524.164093 719.02968,524.498457 C717.92353,524.832821 716.706783,525 715.379403,525 C714.052023,525 712.703922,524.886318 711.335062,524.658951 C709.966201,524.431583 708.604274,524.010291 707.24924,523.395062 L708.161809,520.385802 C709.350921,520.947534 710.512361,521.362139 711.646165,521.62963 C712.779969,521.897121 713.969062,522.030864 715.213481,522.030864 C716.706784,522.030864 717.978837,521.696505 719.02968,521.027778 C720.080523,520.35905 720.605936,519.369348 720.605936,518.058642 C720.605936,517.577158 720.529889,517.129117 720.377794,516.714506 C720.225698,516.299895 719.962991,515.905352 719.589666,515.530864 C719.21634,515.156377 718.711667,514.808644 718.07563,514.487654 C717.439594,514.166665 716.637647,513.859055 715.669766,513.564815 L713.056499,512.762346 C711.14839,512.173865 709.682763,511.371404 708.659574,510.354938 C707.636386,509.338472 707.124799,507.960914 707.124799,506.222222 C707.124799,504.002047 707.878352,502.243319 709.385482,500.945988 C710.892611,499.648656 713.084138,499 715.960129,499 Z M729.565707,524.638889 L729.565707,499.361111 L733.381906,499.361111 L733.381906,510.796296 L744.374218,499.361111 L749.102986,499.361111 L738.318076,510.555556 L749.932594,524.638889 L745.120865,524.638889 L735.580368,513.083333 L733.381906,515.37037 L733.381906,524.638889 L729.565707,524.638889 Z M753.45843,499.361111 L769.220991,499.361111 L769.220991,502.410494 L757.274629,502.410494 L757.274629,509.993827 L768.1425,509.993827 L768.1425,513.003086 L757.274629,513.003086 L757.274629,521.589506 L769.345432,521.589506 L769.345432,524.638889 L753.45843,524.638889 L753.45843,499.361111 Z M791.330055,499.361111 L791.330055,502.490741 L783.158412,502.490741 L783.158412,524.638889 L779.342213,524.638889 L779.342213,502.490741 L771.336492,502.490741 L771.336492,499.361111 L791.330055,499.361111 Z M805.599321,521.950617 C806.982008,521.950617 808.122708,521.843622 809.021455,521.62963 C809.920202,521.415637 810.812023,521.108027 811.696943,520.70679 L812.568031,523.675926 C811.60015,524.130661 810.54241,524.46502 809.394779,524.679012 C808.247148,524.893005 806.843742,525 805.184516,525 C803.469984,525 801.852263,524.719139 800.331307,524.157407 C798.810351,523.595676 797.489904,522.766466 796.369927,521.669753 C795.24995,520.57304 794.365043,519.215543 793.71518,517.597222 C793.065316,515.978901 792.74039,514.113179 792.74039,512 C792.74039,509.940319 793.058403,508.101346 793.694439,506.483025 C794.330476,504.864704 795.208469,503.50052 796.328446,502.390432 C797.448423,501.280344 798.782697,500.43776 800.331307,499.862654 C801.879917,499.287549 803.566771,499 805.391918,499 C807.106451,499 808.516771,499.133744 809.622922,499.401235 C810.729072,499.668726 811.752245,500.029833 812.692473,500.484568 L811.779903,503.373457 C811.254482,503.159464 810.763635,502.965536 810.307348,502.791667 C809.851062,502.617797 809.394781,502.477367 808.938495,502.37037 C808.482208,502.263374 808.012101,502.183128 807.52816,502.12963 C807.04422,502.076131 806.498066,502.049383 805.889684,502.049383 C804.672918,502.049383 803.518392,502.229936 802.426068,502.591049 C801.333745,502.952162 800.379705,503.533947 799.563919,504.33642 C798.748133,505.138893 798.09828,506.175405 797.614339,507.445988 C797.130399,508.71657 796.888432,510.247933 796.888432,512.040123 C796.888432,513.859063 797.123485,515.397113 797.593599,516.654321 C798.063713,517.911529 798.692826,518.92798 799.480958,519.703704 C800.26909,520.479428 801.188564,521.047838 802.239406,521.408951 C803.290249,521.770064 804.410209,521.950617 805.599321,521.950617 Z M816.964956,524.638889 L816.964956,499.361111 L820.781155,499.361111 L820.781155,509.993827 L833.183801,509.993827 L833.183801,499.361111 L837,499.361111 L837,524.638889 L833.183801,524.638889 L833.183801,513.123457 L820.781155,513.123457 L820.781155,524.638889 L816.964956,524.638889 Z" id="PIXEL-SKETCH"></path>
        </g>
    </g>
</svg>