<?xml version="1.0" encoding="UTF-8"?>
<svg width="249px" height="64px" viewBox="0 0 249 64" version="1.1" xmlns="http://www.w3.org/2000/svg" xmlns:xlink="http://www.w3.org/1999/xlink">
    <!-- Generator: Sketch 51.3 (57544) - http://www.bohemiancoding.com/sketch -->
    <title>Pixel Sketch</title>
    <desc>Created with Sketch.</desc>
    <defs></defs>
    <g id="Page-1" stroke="none" stroke-width="1" fill="none" fill-rule="evenodd">
        <g id="SPA-Full" transform="translate(-596.000000, -476.000000)" fill="#000000">
            <path d="M598.04,538.48 C597.399997,538.48 597.08,537.546676 597.08,535.68 C597.08,533.01332 597.053334,530.64001 597,528.56 L596.84,521.36 L596.84,514.88 C596.786666,512.95999 596.76,510.800012 596.76,508.4 C596.76,501.253298 596.626668,494.64003 596.36,488.56 L596.28,485.68 C596.119999,482.533318 596.04,479.973343 596.04,478 L596.28,477.68 C596.333334,477.573333 596.439999,477.440001 596.6,477.28 C596.653334,477.119999 596.786666,477.013334 597,476.96 C597.106667,476.906666 597.293332,476.88 597.56,476.88 C599.426676,476.88 601.119992,477.306662 602.64,478.16 C604.160008,479.013338 605.399995,480.186659 606.36,481.68 C608.226676,484.613348 609.16,487.946648 609.16,491.68 C609.16,494.080012 608.773337,496.533321 608,499.04 C607.226663,501.546679 606.066674,503.813323 604.52,505.84 C602.919992,508.026678 601.133343,509.306665 599.16,509.68 L599.32,518.56 L599.48,522.88 C599.693334,528.000026 599.8,532.373315 599.8,536 C599.8,536.853338 599.680001,537.479998 599.44,537.88 C599.199999,538.280002 598.733337,538.48 598.04,538.48 Z M599.16,506.72 C599.640002,506.666666 600.119998,506.453335 600.6,506.08 C600.706667,506.026666 600.893332,505.813335 601.16,505.44 L601.72,504.88 C605.186684,501.413316 606.92,497.066693 606.92,491.84 C606.92,488.853318 606.333339,486.080013 605.16,483.52 C604.519997,482.18666 603.586673,481.133337 602.36,480.36 C601.133327,479.586663 599.693342,479.2 598.04,479.2 C598.04,482.240015 598.199998,486.79997 598.52,492.88 C598.840002,498.96003 599,503.519985 599,506.56 L599.16,506.72 Z M623.16,538 C621.933327,538 621.213334,537.733336 621,537.2 C620.733332,537.2 620.520001,537.226666 620.36,537.28 L619.72,537.28 C618.546661,537.28 617.800002,537.013336 617.48,536.48 C617.48,536.106665 617.693331,535.786668 618.12,535.52 L618.52,535.12 L620.84,535.12 L621.16,534.8 L621.32,534.08 L621.4,533.12 C621.4,529.86665 621.320001,526.960013 621.16,524.4 L621,521.44 L620.84,515.6 C620.84,513.51999 620.919999,510.400021 621.08,506.24 L621.24,496.96 C621.24,492.906646 621.106668,489.813344 620.84,487.68 C620.359998,487.519999 619.560006,487.44 618.44,487.44 L617.56,487.52 C617.239998,487.573334 616.893335,487.6 616.52,487.6 C615.506662,487.6 615,487.146671 615,486.24 C615,486.026666 615.239998,485.813334 615.72,485.6 C616.200002,485.386666 616.599998,485.28 616.92,485.28 C618.946677,485.28 620.973323,485.386666 623,485.6 C624.226673,485.653334 625.453327,485.893331 626.68,486.32 C627.640005,486.640002 628.12,487.09333 628.12,487.68 C628.12,487.786667 628.040001,487.999998 627.88,488.32 L626.04,488.48 C625.666665,488.159998 624.893339,488 623.72,488 L623.32,488.24 C623.480001,488.720002 623.56,490.133322 623.56,492.48 C623.56,496.000018 623.533334,499.173319 623.48,502 L623.32,511.52 C623.32,513.920012 623.426666,516.82665 623.64,520.24 C623.800001,524.133353 623.88,527.066657 623.88,529.04 L623.88,530.08 C623.826666,530.453335 623.8,530.93333 623.8,531.52 C623.8,532.746673 623.879999,533.493332 624.04,533.76 L623.96,533.92 C623.96,534.453336 624.546661,534.72 625.72,534.72 C626.200002,534.72 626.599998,534.693334 626.92,534.64 L628.12,534.64 C629.666674,534.64 630.44,535.01333 630.44,535.76 C630.44,536.240002 630.280002,536.626665 629.96,536.92 C629.639998,537.213335 629.213336,537.36 628.68,537.36 C628.199998,537.36 627.773335,537.306667 627.4,537.2 C626.973331,537.146666 626.520002,537.12 626.04,537.12 C625.719998,537.12 625.240003,537.253332 624.6,537.52 C623.959997,537.840002 623.480002,538 623.16,538 Z M637.88,538.24 C636.866662,538.24 636.36,537.920003 636.36,537.28 C636.36,534.61332 637.106659,530.453362 638.6,524.8 C640.093341,519.199972 640.84,515.013347 640.84,512.24 C640.84,510.746659 640.120007,506.693366 638.68,500.08 C637.239993,493.466634 636.280002,489.86667 635.8,489.28 L635.8,488.96 C635.853334,488.906666 635.88,488.853334 635.88,488.8 C635.88,488.399998 635.746668,488.026669 635.48,487.6 L635.16,486.64 C635.16,486.426666 635.333332,486.240001 635.68,486.08 C636.026668,485.919999 636.333332,485.84 636.6,485.84 C637.026669,485.84 637.386665,486.159997 637.68,486.8 C637.973335,487.440003 638.173333,488.106663 638.28,488.8 L638.36,490.64 C639.10667,492.826678 639.77333,495.493318 640.36,498.64 C641.053337,502.160018 641.613331,504.639993 642.04,506.08 C642.360002,505.439997 642.773331,503.360018 643.28,499.84 C643.786669,496.319982 644.119999,493.680009 644.28,491.92 C644.600002,487.599978 644.946665,485.386667 645.32,485.28 L645.96,485.12 L646.6,485.04 L647.32,486 C646.466662,487.226673 646.04,489.573316 646.04,493.04 L646.04,493.52 L646.12,494 L646.04,494.08 C645.826666,496.00001 645.293338,498.933314 644.44,502.88 C643.533329,507.253355 643.08,510.559989 643.08,512.8 C643.08,513.653338 643.773326,517.199969 645.16,523.44 C646.546674,529.680031 647.453331,533.333328 647.88,534.4 C647.88,534.453334 648.013332,534.666665 648.28,535.04 C648.653335,535.733337 648.84,536.293331 648.84,536.72 C648.84,537.040002 648.720001,537.306666 648.48,537.52 C648.239999,537.733334 647.960002,537.84 647.64,537.84 C647.266665,537.84 646.920002,537.760001 646.6,537.6 L645.16,531.52 C643.879994,526.719976 642.86667,522.266687 642.12,518.16 C641.479997,519.120005 640.893336,521.89331 640.36,526.48 C639.826664,531.22669 639.346669,534.159994 638.92,535.28 C639.026667,535.493334 639.08,535.813331 639.08,536.24 C639.08,536.773336 638.986668,537.239998 638.8,537.64 C638.613332,538.040002 638.306669,538.24 637.88,538.24 Z M659.24,539.04 C658.279995,539.04 657.746667,538.480006 657.64,537.36 L657.64,536.32 C657.693334,536.053332 657.72,535.733335 657.72,535.36 L657.4,535.04 C657.826669,533.919994 658.04,532.826672 658.04,531.76 C658.04,530.533327 657.960001,528.773345 657.8,526.48 L657.64,521.2 C657.64,518.53332 657.719999,514.53336 657.88,509.2 C658.093334,504.45331 658.2,500.426683 658.2,497.12 L658.04,492.32 C657.933333,490.879993 657.88,489.280009 657.88,487.52 C657.88,486.719996 658.066665,486.146668 658.44,485.8 C658.813335,485.453332 659.399996,485.28 660.2,485.28 C660.733336,485.28 661.159998,485.439998 661.48,485.76 C661.586667,485.813334 662.359993,485.919999 663.8,486.08 C665.13334,486.240001 666.279995,486.479998 667.24,486.8 C668.253338,487.120002 668.76,487.519998 668.76,488 C668.76,488.533336 668.253338,489.066664 667.24,489.6 C664.199985,488.586662 662.040006,488.08 660.76,488.08 L660.36,488.56 C660.413334,489.040002 660.44,490.186658 660.44,492 C660.44,494.293345 660.386667,496.346658 660.28,498.16 C660.226666,500.026676 660.2,502.106655 660.2,504.4 C660.2,505.893341 660.57333,506.64 661.32,506.64 L662.6,506.56 C663.026669,506.506666 663.479998,506.48 663.96,506.48 C666.04001,506.48 667.08,506.959995 667.08,507.92 C667.08,508.50667 666.946668,508.999998 666.68,509.4 C666.413332,509.800002 666.013336,510 665.48,510 C664.679996,510 664.066669,509.786669 663.64,509.36 L661.08,508.96 L660.68,508.96 L660.28,509.36 L660.28,509.6 C660.386667,510.506671 660.44,512.613317 660.44,515.92 C660.44,518.00001 660.413334,519.893325 660.36,521.6 L660.28,527.28 C660.28,529.36001 660.359999,531.493322 660.52,533.68 C660.573334,534.906673 660.839998,535.719998 661.32,536.12 C661.800002,536.520002 662.679994,536.72 663.96,536.72 L665.4,536.64 C665.880002,536.586666 666.41333,536.56 667,536.56 C668.546674,536.56 669.32,536.906663 669.32,537.6 C669.32,538.560005 668.146678,539.04 665.8,539.04 L659.24,539.04 Z M679.64,539.04 C678.89333,539.04 678.440001,538.426673 678.28,537.2 C678.386667,536.879998 678.44,536.000007 678.44,534.56 C678.44,529.653309 678.519999,522.373382 678.68,512.72 C678.840001,503.119952 678.92,496.186688 678.92,491.92 L679.08,489.04 L679.32,486.64 C679.32,486.266665 679.506665,486.08 679.88,486.08 C680.146668,486.08 680.519998,486.159999 681,486.32 L681.24,486.4 C681.24,487.573339 681.213334,488.639995 681.16,489.6 L681.16,501.44 C681.213334,504.000013 681.24,506.90665 681.24,510.16 C681.186666,510.426668 681.16,511.013329 681.16,511.92 L681.08,513.6 C681.026666,514.666672 681,515.759994 681,516.88 C681,518.106673 681.026666,519.226662 681.08,520.24 L681.16,523.68 L680.92,524.32 L681,524.24 C681,524.400001 680.973334,524.506666 680.92,524.56 L680.92,524.88 C680.92,525.306669 680.999999,525.679998 681.16,526 L680.92,533.68 L680.92,534.16 C680.92,535.066671 680.946666,535.599999 681,535.76 C681,536.026668 681.133332,536.16 681.4,536.16 L685.56,536.32 C686.786673,536.32 687.626664,536.333333 688.08,536.36 C688.533336,536.386667 688.813333,536.4 688.92,536.4 L689.16,536.4 C689.426668,536.4 689.693332,536.546665 689.96,536.84 C690.226668,537.133335 690.36,537.439998 690.36,537.76 C690.36,538.400003 689.933338,538.746666 689.08,538.8 C688.173329,538.746666 685.960018,538.72 682.44,538.72 L682.6,538.8 C682.066664,538.8 681.560002,538.826666 681.08,538.88 C680.653331,538.986667 680.173336,539.04 679.64,539.04 Z M715.24,539.76 C714.279995,539.76 713.546669,539.72 713.04,539.64 C712.533331,539.56 711.98667,539.386668 711.4,539.12 C710.759997,538.799998 710.280002,538.34667 709.96,537.76 C709.96,537.119997 710.25333,536.8 710.84,536.8 C711.42667,536.8 712.173329,536.986665 713.08,537.36 C713.933338,537.786669 714.65333,538 715.24,538 C716.413339,538 717.493328,537.520005 718.48,536.56 C719.466672,535.599995 720.226664,534.346674 720.76,532.8 C721.826672,529.759985 722.36,527.066678 722.36,524.72 C722.36,522.106654 721.98667,519.46668 721.24,516.8 C720.49333,514.13332 719.506673,511.626678 718.28,509.28 C718.013332,508.69333 717.560003,507.813339 716.92,506.64 C715.58666,503.97332 714.573337,501.893341 713.88,500.4 C713.186663,498.906659 712.573336,497.253342 712.04,495.44 C711.29333,493.039988 710.92,490.453347 710.92,487.68 C710.92,485.919991 711.199997,484.226675 711.76,482.6 C712.320003,480.973325 713.213327,479.573339 714.44,478.4 C715.77334,477.173327 717.266658,476.56 718.92,476.56 C719.560003,476.56 720.333329,476.813331 721.24,477.32 C722.146671,477.826669 722.6,478.319998 722.6,478.8 C722.6,479.226669 722.440002,479.44 722.12,479.44 C721.799998,479.44 721.373336,479.306668 720.84,479.04 C720.359998,478.773332 719.906669,478.64 719.48,478.64 C718.253327,478.64 717.173338,479.093329 716.24,480 C715.306662,480.906671 714.626669,482.02666 714.2,483.36 C713.826665,484.480006 713.64,485.70666 713.64,487.04 C713.64,489.12001 713.906664,491.266656 714.44,493.48 C714.973336,495.693344 715.693329,497.75999 716.6,499.68 L719.4,505.52 L720.2,507.2 C721.320006,509.493345 722.186664,511.386659 722.8,512.88 C723.413336,514.373341 723.933331,516.053324 724.36,517.92 C724.94667,520.426679 725.24,522.826655 725.24,525.12 C725.24,528.213349 724.440008,531.359984 722.84,534.56 C722.039996,536.106674 720.97334,537.359995 719.64,538.32 C718.30666,539.280005 716.840008,539.76 715.24,539.76 Z M753.56,539.44 C752.279994,539.44 750.760009,537.040024 749,532.24 C747.346658,527.813311 745.906673,523.013359 744.68,517.84 C743.453327,512.666641 742.786667,509.04001 742.68,506.96 L742.44,506.64 L741.24,509.2 C740.65333,510.320006 740.213335,511.239996 739.92,511.96 C739.626665,512.680004 739.346668,513.573328 739.08,514.64 C738.759998,515.653338 738.6,516.693328 738.6,517.76 C738.6,518.826672 738.546667,519.786662 738.44,520.64 L738.28,523.52 L738.28,533.76 C738.28,534.240002 738.359999,535.013328 738.52,536.08 C738.680001,537.040005 738.76,537.786664 738.76,538.32 C738.76,538.586668 738.626668,538.813332 738.36,539 C738.093332,539.186668 737.800002,539.28 737.48,539.28 C736.786663,539.28 736.320001,539.173334 736.08,538.96 C735.839999,538.746666 735.72,538.293337 735.72,537.6 L735.72,522.56 C735.72,521.706662 735.853332,520.026679 736.12,517.52 C736.386668,515.013321 736.52,513.333338 736.52,512.48 C736.52,510.239989 736.653332,507.653348 736.92,504.72 C737.133334,501.733318 737.24,499.173344 737.24,497.04 L737.24,485.92 C737.560002,485.33333 738.066663,485.04 738.76,485.04 C739.186669,485.04 739.546665,485.186665 739.84,485.48 C740.133335,485.773335 740.28,486.133331 740.28,486.56 C739.853331,487.520005 739.64,488.799992 739.64,490.4 L739.48,498.8 C739.373333,501.360013 739.32,504.186651 739.32,507.28 C739.853336,507.119999 741.933315,503.440036 745.56,496.24 C749.186685,489.093298 751.186665,485.52 751.56,485.52 C752.946674,485.52 753.64,485.973329 753.64,486.88 C750.22665,491.946692 747.400011,496.879976 745.16,501.68 L745.08,504.24 C745.026666,504.98667 745,505.839995 745,506.8 C745,509.146678 745.906658,513.546634 747.72,520 C749.533342,526.453366 751.079994,530.933321 752.36,533.44 C752.94667,534.240004 753.293333,534.693333 753.4,534.8 C753.933336,535.54667 754.319999,536.173331 754.56,536.68 C754.800001,537.186669 754.92,537.706664 754.92,538.24 C754.92,538.613335 754.786668,538.906666 754.52,539.12 C754.253332,539.333334 753.933335,539.44 753.56,539.44 Z M763.96,539.04 C762.999995,539.04 762.466667,538.480006 762.36,537.36 L762.36,536.32 C762.413334,536.053332 762.44,535.733335 762.44,535.36 L762.12,535.04 C762.546669,533.919994 762.76,532.826672 762.76,531.76 C762.76,530.533327 762.680001,528.773345 762.52,526.48 L762.36,521.2 C762.36,518.53332 762.439999,514.53336 762.6,509.2 C762.813334,504.45331 762.92,500.426683 762.92,497.12 L762.76,492.32 C762.653333,490.879993 762.6,489.280009 762.6,487.52 C762.6,486.719996 762.786665,486.146668 763.16,485.8 C763.533335,485.453332 764.119996,485.28 764.92,485.28 C765.453336,485.28 765.879998,485.439998 766.2,485.76 C766.306667,485.813334 767.079993,485.919999 768.52,486.08 C769.85334,486.240001 770.999995,486.479998 771.96,486.8 C772.973338,487.120002 773.48,487.519998 773.48,488 C773.48,488.533336 772.973338,489.066664 771.96,489.6 C768.919985,488.586662 766.760006,488.08 765.48,488.08 L765.08,488.56 C765.133334,489.040002 765.16,490.186658 765.16,492 C765.16,494.293345 765.106667,496.346658 765,498.16 C764.946666,500.026676 764.92,502.106655 764.92,504.4 C764.92,505.893341 765.29333,506.64 766.04,506.64 L767.32,506.56 C767.746669,506.506666 768.199998,506.48 768.68,506.48 C770.76001,506.48 771.8,506.959995 771.8,507.92 C771.8,508.50667 771.666668,508.999998 771.4,509.4 C771.133332,509.800002 770.733336,510 770.2,510 C769.399996,510 768.786669,509.786669 768.36,509.36 L765.8,508.96 L765.4,508.96 L765,509.36 L765,509.6 C765.106667,510.506671 765.16,512.613317 765.16,515.92 C765.16,518.00001 765.133334,519.893325 765.08,521.6 L765,527.28 C765,529.36001 765.079999,531.493322 765.24,533.68 C765.293334,534.906673 765.559998,535.719998 766.04,536.12 C766.520002,536.520002 767.399994,536.72 768.68,536.72 L770.12,536.64 C770.600002,536.586666 771.13333,536.56 771.72,536.56 C773.266674,536.56 774.04,536.906663 774.04,537.6 C774.04,538.560005 772.866678,539.04 770.52,539.04 L763.96,539.04 Z M788.2,536.88 L788.12,533.92 C788.066666,533.066662 788.04,532.106672 788.04,531.04 C788.04,530.506664 788.066666,530.053335 788.12,529.68 L788.2,528.24 C788.2,527.706664 788.093334,527.06667 787.88,526.32 C787.88,522.746649 787.613336,516.106715 787.08,506.4 C786.546664,497.013286 786.253334,490.640017 786.2,487.28 C782.893317,487.28 780.680006,487.200001 779.56,487.04 C778.493328,486.773332 777.96,486.34667 777.96,485.76 C778.226668,485.17333 778.73333,484.88 779.48,484.88 C781.080008,484.88 783.399985,484.986666 786.44,485.2 C789.213347,485.466668 791.533324,485.6 793.4,485.6 L795.08,485.6 L796.76,485.52 C797.720005,485.52 798.2,485.866663 798.2,486.56 C798.2,486.880002 798.026668,487.133332 797.68,487.32 C797.333332,487.506668 796.920002,487.6 796.44,487.6 C795.373328,487.6 794.253339,487.546667 793.08,487.44 L789.64,487.28 C789.426666,487.28 789.32,487.359999 789.32,487.52 C789.266666,487.680001 789.24,488.186662 789.24,489.04 C789.24,494.213359 789.559997,502.053281 790.2,512.56 C790.78667,523.440054 791.08,531.25331 791.08,536 C791.08,536.373335 790.853336,536.719998 790.4,537.04 C789.946664,537.360002 789.506669,537.52 789.08,537.52 L788.2,536.88 Z M812.6,538.56 C811.586662,538.239998 810.720004,537.78667 810,537.2 C809.279996,536.61333 808.600003,535.733339 807.96,534.56 C806.839994,532.426656 806.173334,529.36002 805.96,525.36 C805.853333,523.546658 805.8,521.946674 805.8,520.56 L805.8,511.44 C805.8,507.973316 805.906666,504.61335 806.12,501.36 C806.280001,498.959988 806.519998,496.933342 806.84,495.28 C807.160002,493.626658 807.666663,491.973342 808.36,490.32 C809.10667,488.613325 809.933329,487.413337 810.84,486.72 C811.213335,486.399998 811.933328,486.026669 813,485.6 C813.693337,485.333332 814.359997,485.040002 815,484.72 L818.44,484.72 C818.493334,484.773334 818.573333,484.8 818.68,484.8 L819.08,484.88 L819.4,485.12 C819.560001,485.280001 819.64,485.386666 819.64,485.44 C819.693334,485.546667 819.72,485.706666 819.72,485.92 L818.68,487.12 L815.32,487.12 C814.306662,487.12 813.386671,487.613328 812.56,488.6 C811.733329,489.586672 811.106669,490.826659 810.68,492.32 C810.253331,493.65334 809.906668,495.226658 809.64,497.04 C809.373332,498.853342 809.213334,500.42666 809.16,501.76 C809.053333,503.466675 809,504.639997 809,505.28 L808.84,505.68 C808.84,508.666682 808.786667,511.359988 808.68,513.76 L808.52,521.84 C808.52,524.186678 808.679998,526.346657 809,528.32 C809.266668,530.453344 810.039994,532.373325 811.32,534.08 C812.546673,535.786675 814.439987,536.64 817,536.64 C817.800004,536.64 818.466664,536.400002 819,535.92 C819.800004,535.92 820.2,536.21333 820.2,536.8 C820.2,537.173335 819.86667,537.613331 819.2,538.12 C818.53333,538.626669 817.853337,539.013332 817.16,539.28 L814.52,539.28 L812.6,538.56 Z M843.88,538.88 C843.88,538.346664 843.080008,538.08 841.48,538.08 C841.213332,528.213284 841.08,521.066689 841.08,516.64 L840.84,516.32 L841.16,515.6 C841.16,514.639995 841.053334,513.653338 840.84,512.64 L839.64,512.32 C839.159998,512.480001 838.62667,512.56 838.04,512.56 C837.613331,512.56 836.73334,512.426668 835.4,512.16 C834.493329,511.893332 833.66667,511.76 832.92,511.76 L832.04,512.08 C832.04,513.946676 832.013334,515.626659 831.96,517.12 C831.906666,518.613341 831.88,520.293324 831.88,522.16 L832.04,522.48 C832.04,523.973341 832.119999,526.213318 832.28,529.2 C832.440001,532.133348 832.52,534.346659 832.52,535.84 C832.52,536.42667 832.413334,536.919998 832.2,537.32 C831.986666,537.720002 831.666669,537.92 831.24,537.92 C830.066661,537.92 829.48,536.320016 829.48,533.12 C829.48,530.399986 829.506666,527.946678 829.56,525.76 L829.64,518.48 C829.64,513.626642 829.560001,511.013335 829.4,510.64 C829.666668,510.106664 829.8,508.346682 829.8,505.36 C829.8,502.799987 829.693334,499.680018 829.48,496 L829.32,492.88 L829.16,486.64 C829.16,486.266665 829.293332,485.920002 829.56,485.6 C829.826668,485.279998 830.146665,485.12 830.52,485.12 C831.586672,485.12 832.12,486.666651 832.12,489.76 C832.12,493.386685 832.093334,496.666652 832.04,499.6 C831.933333,502.533348 831.88,505.759982 831.88,509.28 C831.88,509.920003 833.906646,510.24 837.96,510.24 L838.28,510.24 C839.293338,510.24 840.026664,510.040002 840.48,509.64 C840.933336,509.239998 841.16,508.560005 841.16,507.6 C841.16,504.773319 840.973335,501.093356 840.6,496.56 C840.279998,491.653309 840.12,487.973346 840.12,485.52 C840.12,485.199998 840.253332,484.920001 840.52,484.68 C840.786668,484.439999 841.106665,484.32 841.48,484.32 L842.2,484.56 C842.573335,484.613334 842.813333,484.693333 842.92,484.8 C842.92,488.960021 843.079998,495.173292 843.4,503.44 C843.720002,511.760042 843.88,517.999979 843.88,522.16 C843.88,528.453365 844.066665,533.733312 844.44,538 L843.88,538.88 Z" id="Pixel-Sketch"></path>
        </g>
    </g>
</svg>