<?xml version="1.0" encoding="UTF-8"?>
<svg width="1440px" height="1024px" viewBox="0 0 1440 1024" version="1.1" xmlns="http://www.w3.org/2000/svg" xmlns:xlink="http://www.w3.org/1999/xlink">
    <!-- Generator: Sketch 51.3 (57544) - http://www.bohemiancoding.com/sketch -->
    <title>Overlay</title>
    <desc>Created with Sketch.</desc>
    <defs></defs>
    <g id="Page-1" stroke="none" stroke-width="1" fill="none" fill-rule="evenodd">
        <g id="Desktop-HD" fill="#D8D8D8">
            <g id="Overlay" transform="translate(-1.000000, -1.000000)">
                <rect id="Rectangle-2" x="0" y="0" width="182" height="207"></rect>
                <rect id="Rectangle-2-Copy" x="0" y="206" width="182" height="207"></rect>
                <rect id="Rectangle-2-Copy-2" x="0" y="412" width="182" height="207"></rect>
                <rect id="Rectangle-2-Copy-3" x="0" y="618" width="182" height="207"></rect>
                <rect id="Rectangle-2-Copy-4" x="0" y="824" width="182" height="207"></rect>
                <rect id="Rectangle-2-Copy-9" x="181" y="0" width="182" height="207"></rect>
                <rect id="Rectangle-2-Copy-8" x="181" y="206" width="182" height="207"></rect>
                <rect id="Rectangle-2-Copy-7" x="181" y="412" width="182" height="207"></rect>
                <rect id="Rectangle-2-Copy-6" x="181" y="618" width="182" height="207"></rect>
                <rect id="Rectangle-2-Copy-5" x="181" y="824" width="182" height="207"></rect>
                <rect id="Rectangle-2-Copy-14" x="362" y="0" width="182" height="207"></rect>
                <rect id="Rectangle-2-Copy-13" x="362" y="206" width="182" height="207"></rect>
                <rect id="Rectangle-2-Copy-12" x="362" y="412" width="182" height="207"></rect>
                <rect id="Rectangle-2-Copy-11" x="362" y="618" width="182" height="207"></rect>
                <rect id="Rectangle-2-Copy-10" x="362" y="824" width="182" height="207"></rect>
                <rect id="Rectangle-2-Copy-19" x="543" y="0" width="182" height="207"></rect>
                <rect id="Rectangle-2-Copy-18" x="543" y="206" width="182" height="207"></rect>
                <rect id="Rectangle-2-Copy-17" x="543" y="412" width="182" height="207"></rect>
                <rect id="Rectangle-2-Copy-16" x="543" y="618" width="182" height="207"></rect>
                <rect id="Rectangle-2-Copy-15" x="543" y="824" width="182" height="207"></rect>
                <rect id="Rectangle-2-Copy-24" x="724" y="0" width="182" height="207"></rect>
                <rect id="Rectangle-2-Copy-23" x="724" y="206" width="182" height="207"></rect>
                <rect id="Rectangle-2-Copy-22" x="724" y="412" width="182" height="207"></rect>
                <rect id="Rectangle-2-Copy-21" x="724" y="618" width="182" height="207"></rect>
                <rect id="Rectangle-2-Copy-20" x="724" y="824" width="182" height="207"></rect>
                <rect id="Rectangle-2-Copy-29" x="905" y="0" width="182" height="207"></rect>
                <rect id="Rectangle-2-Copy-28" x="905" y="206" width="182" height="207"></rect>
                <rect id="Rectangle-2-Copy-27" x="905" y="412" width="182" height="207"></rect>
                <rect id="Rectangle-2-Copy-26" x="905" y="618" width="182" height="207"></rect>
                <rect id="Rectangle-2-Copy-25" x="905" y="824" width="182" height="207"></rect>
                <rect id="Rectangle-2-Copy-34" x="1086" y="0" width="182" height="207"></rect>
                <rect id="Rectangle-2-Copy-33" x="1086" y="206" width="182" height="207"></rect>
                <rect id="Rectangle-2-Copy-32" x="1086" y="412" width="182" height="207"></rect>
                <rect id="Rectangle-2-Copy-31" x="1086" y="618" width="182" height="207"></rect>
                <rect id="Rectangle-2-Copy-30" x="1086" y="824" width="182" height="207"></rect>
                <rect id="Rectangle-2-Copy-39" x="1267" y="0" width="182" height="207"></rect>
                <rect id="Rectangle-2-Copy-38" x="1267" y="206" width="182" height="207"></rect>
                <rect id="Rectangle-2-Copy-37" x="1267" y="412" width="182" height="207"></rect>
                <rect id="Rectangle-2-Copy-36" x="1267" y="618" width="182" height="207"></rect>
                <rect id="Rectangle-2-Copy-35" x="1267" y="824" width="182" height="207"></rect>
            </g>
        </g>
    </g>
</svg>